<?xml version="1.0" standalone="no"?><!DOCTYPE svg PUBLIC "-//W3C//DTD SVG 1.1//EN" "http://www.w3.org/Graphics/SVG/1.1/DTD/svg11.dtd"><svg class="icon" height="512" viewBox="0 0 1024 1024" version="1.1" xmlns="http://www.w3.org/2000/svg"><path d="M713.728 79.36c-135.168-61.44-249.856-66.048-371.2 14.848-93.184 61.952-125.952 216.576-124.928 235.52 1.024 18.432 21.504 47.104-38.4 87.04-59.904 39.936-67.584 30.208-62.464 57.856 3.584 19.456 24.576 30.208 32.768 40.448 8.192 10.24 15.36 22.528 4.096 35.84-7.168 8.192-23.552 10.752-13.312 33.28 8.704 19.968 37.376 22.016 47.104 24.064 3.584 1.024-26.112-4.096-38.4 1.024-9.216 4.096-19.456 19.456-13.312 29.696 6.144 10.24 21.504 14.336 26.112 17.408 4.096 3.072 3.072 20.48 3.584 25.088 1.536 20.48-11.776 38.4-19.456 56.832-8.704 19.968 4.608 61.952 49.152 71.168 44.032 9.216 61.952 8.704 94.208 11.776 57.856 5.12 102.4 91.136 107.008 162.304 25.088 4.096 98.304 4.096 124.416 4.096 84.48 0 164.864-20.992 236.032-58.368-36.352-205.824 76.288-225.28 135.168-424.448 22.528-80.384 57.344-318.976-178.176-425.472z m-120.832 394.24l-8.704 6.656-28.16-27.136c-7.68 3.584-15.36 6.144-23.552 8.192l-1.024 36.352-10.752 1.536-27.136 3.584-10.752 1.536-11.264-37.888c-8.192-1.024-16.896-2.048-24.576-4.096l-18.432 30.72-9.728-4.096-25.088-10.24-9.728-4.096 9.216-37.376c-7.168-5.12-13.824-10.24-19.456-16.384l-30.72 16.896-6.656-8.192-16.384-21.504-6.656-8.704 26.112-27.136c-3.584-7.68-6.656-16.384-9.216-24.576l-34.816-0.512-1.536-10.752-3.584-27.136-1.536-10.752 35.84-10.752c1.024-8.704 2.56-17.408 4.608-25.6l-29.696-17.92 4.096-9.728 10.24-25.088 4.096-9.728 37.376 9.216c5.12-6.656 10.752-13.312 16.896-19.456l-17.408-31.232 8.704-6.656 21.504-16.384 8.704-6.656 28.16 27.136c7.68-3.584 15.36-6.144 23.552-8.192l0.512-36.352 10.752-1.536 27.136-3.584 10.752-1.536 11.264 37.376c8.192 1.024 16.384 2.56 24.576 4.096l18.432-30.72 9.728 4.096 25.088 10.24 9.728 4.096-9.216 37.376c7.168 5.12 13.312 10.24 19.456 16.384l30.72-16.896 6.656 8.704 16.384 21.504 6.656 8.704-26.112 27.136c3.584 7.68 6.656 16.384 8.704 24.576l34.816 0.512 1.536 10.752 3.584 27.136 1.536 10.752-36.352 10.752c-1.024 8.704-2.56 17.408-4.608 25.6l29.696 17.92-4.096 9.728-10.24 25.088-4.096 9.728-37.376-9.216c-5.12 6.656-10.752 13.312-16.896 19.456l17.408 31.232-8.704 6.656-19.968 16.384z m217.088 48.128l-23.552 3.072c-1.536 9.728-4.608 18.432-9.728 26.624 0.512 0.512 1.024 0.512 1.024 1.024l14.848 18.944c2.56 3.072 2.048 7.68-1.024 10.24l-25.088 19.456c-3.072 2.56-8.192 2.048-10.24-1.536l-14.336-18.432c-5.12 2.048-10.752 3.584-16.384 4.608-3.584 0.512-7.68 0.512-11.264 0.512v1.024l-9.216 22.016c-1.536 3.584-5.632 5.632-9.728 4.096l-29.184-11.776c-3.584-1.536-5.632-5.632-4.096-9.728l8.704-21.504c-7.168-5.632-13.312-13.312-17.92-21.504-0.512 0-0.512 0.512-1.024 0.512l-24.064 3.072c-4.096 0.512-7.68-2.048-8.192-6.144l-4.096-31.232c-0.512-4.096 2.56-7.68 6.144-8.192l23.552-3.072c1.536-9.728 4.608-18.432 9.728-26.112-0.512 0-0.512-0.512-1.024-1.024l-14.848-18.944c-2.56-3.072-2.048-8.192 1.536-10.24l25.088-19.456c3.072-2.56 8.192-2.048 10.24 1.536l14.336 18.432c5.12-2.048 10.752-3.584 16.384-4.608 3.584-0.512 7.68-0.512 11.264-0.512v-1.536l9.216-22.016c1.536-3.584 5.632-5.632 9.728-4.096l29.184 11.776c3.584 1.536 5.632 5.632 4.096 9.728l-8.704 21.504c7.168 5.632 13.312 13.312 17.92 21.504 0.512 0 0.512-0.512 1.024-0.512l24.064-3.072c4.096-0.512 7.68 2.56 8.192 6.144l4.096 31.232c0 3.584-2.56 7.68-6.656 8.192zM680.96 513.536a34.304 34.304 0 0 0 68.608 0 34.304 34.304 0 0 0-68.608 0zM489.472 169.472c-74.24 0-134.144 59.904-134.144 134.144s59.904 134.144 134.144 134.144 134.144-59.904 134.144-134.144-60.416-134.144-134.144-134.144z m0 195.072c-33.28 0-60.416-27.136-60.416-60.416 0-33.28 27.136-60.416 60.416-60.416 33.28 0 60.416 27.136 60.416 60.416 0 32.768-27.136 60.416-60.416 60.416z" /></svg>