<?xml version="1.0" encoding="utf-8"?>
<!-- Generator: Adobe Illustrator 22.0.0, SVG Export Plug-In . SVG Version: 6.00 Build 0)  -->
<svg version="1.1" id="Layer_1" xmlns="http://www.w3.org/2000/svg" xmlns:xlink="http://www.w3.org/1999/xlink" x="0px" y="0px"
	 viewBox="0 0 410 489" style="enable-background:new 0 0 410 489;" xml:space="preserve">
<style type="text/css">
	.st0{fill:#CECECE;stroke:#DAAC00;stroke-width:5;stroke-miterlimit:10;}
</style>
<path id="XMLID_1_" class="st0" d="M307.9,28.7C240.3-2,182.9-4.3,122.3,36.1c-46.6,31-63,108.3-62.5,117.8
	c0.5,9.2,10.8,23.6-19.2,43.5S6.8,212.5,9.4,226.3c1.8,9.7,12.3,15.1,16.4,20.2c4.1,5.1,7.7,11.3,2,17.9c-3.6,4.1-11.8,5.4-6.7,16.6
	c4.4,10,18.7,11,23.6,12c1.8,0.5-13.1-2-19.2,0.5c-4.6,2-9.7,9.7-6.7,14.8s10.8,7.2,13.1,8.7c2,1.5,1.5,10.2,1.8,12.5
	c0.8,10.2-5.9,19.2-9.7,28.4c-4.4,10,2.3,31,24.6,35.6c22,4.6,31,4.4,47.1,5.9c28.9,2.6,51.2,45.6,53.5,81.2c12.5,2,49.2,2,62.2,2
	c42.2,0,82.4-10.5,118-29.2C311.2,350.7,367.5,341,397,241.4C408.2,201.2,425.6,81.9,307.9,28.7L307.9,28.7z M247.4,225.8l-4.4,3.3
	L229,215.6c-3.8,1.8-7.7,3.1-11.8,4.1l-0.5,18.2l-5.4,0.8l-13.6,1.8l-5.4,0.8l-5.6-18.9c-4.1-0.5-8.4-1-12.3-2l-9.2,15.4l-4.9-2
	l-12.5-5.1l-4.9-2l4.6-18.7c-3.6-2.6-6.9-5.1-9.7-8.2l-15.4,8.4l-3.3-4.1L111,193l-3.3-4.4l13.1-13.6c-1.8-3.8-3.3-8.2-4.6-12.3
	l-17.4-0.3l-0.8-5.4l-1.8-13.6l-0.8-5.4l17.9-5.4c0.5-4.4,1.3-8.7,2.3-12.8l-14.8-9l2-4.9l5.1-12.5l2-4.9l18.7,4.6
	c2.6-3.3,5.4-6.7,8.4-9.7l-8.7-15.6l4.4-3.3l10.8-8.2l4.4-3.3l14.1,13.6c3.8-1.8,7.7-3.1,11.8-4.1l0.3-18.2l5.4-0.8l13.6-1.8
	l5.4-0.8l5.6,18.7c4.1,0.5,8.2,1.3,12.3,2l9.2-15.4l4.9,2l12.5,5.1l4.9,2l-4.6,18.7c3.6,2.6,6.7,5.1,9.7,8.2l15.4-8.4l3.3,4.4
	l8.2,10.8l3.3,4.4L270,107.3c1.8,3.8,3.3,8.2,4.4,12.3l17.4,0.3l0.8,5.4l1.8,13.6l0.8,5.4l-18.2,5.4c-0.5,4.4-1.3,8.7-2.3,12.8
	l14.8,9l-2,4.9l-5.1,12.5l-2,4.9l-18.7-4.6c-2.6,3.3-5.4,6.7-8.4,9.7l8.7,15.6l-4.4,3.3L247.4,225.8L247.4,225.8z M356,249.9
	l-11.8,1.5c-0.8,4.9-2.3,9.2-4.9,13.3c0.3,0.3,0.5,0.3,0.5,0.5l7.4,9.5c1.3,1.5,1,3.8-0.5,5.1l-12.5,9.7c-1.5,1.3-4.1,1-5.1-0.8
	l-7.2-9.2c-2.6,1-5.4,1.8-8.2,2.3c-1.8,0.3-3.8,0.3-5.6,0.3v0.5l-4.6,11c-0.8,1.8-2.8,2.8-4.9,2l-14.6-5.9c-1.8-0.8-2.8-2.8-2-4.9
	l4.4-10.8c-3.6-2.8-6.7-6.7-9-10.8c-0.3,0-0.3,0.3-0.5,0.3l-12,1.5c-2,0.3-3.8-1-4.1-3.1l-2-15.6c-0.3-2,1.3-3.8,3.1-4.1l11.8-1.5
	c0.8-4.9,2.3-9.2,4.9-13.1c-0.3,0-0.3-0.3-0.5-0.5l-7.4-9.5c-1.3-1.5-1-4.1,0.8-5.1l12.5-9.7c1.5-1.3,4.1-1,5.1,0.8l7.2,9.2
	c2.6-1,5.4-1.8,8.2-2.3c1.8-0.3,3.8-0.3,5.6-0.3v-0.8l4.6-11c0.8-1.8,2.8-2.8,4.9-2l14.6,5.9c1.8,0.8,2.8,2.8,2,4.9l-4.4,10.8
	c3.6,2.8,6.7,6.7,9,10.8c0.3,0,0.3-0.3,0.5-0.3l12-1.5c2-0.3,3.8,1.3,4.1,3.1l2,15.6C359.3,247.6,358,249.6,356,249.9L356,249.9z
	 M291.5,245.8c0,9.5,7.7,17.1,17.2,17.1c9.5,0,17.1-7.7,17.1-17.1c0-9.5-7.7-17.2-17.2-17.2S291.5,236.3,291.5,245.8L291.5,245.8z
	 M195.7,73.7c-37.1,0-67.1,30-67.1,67.1s30,67.1,67.1,67.1s67.1-30,67.1-67.1S232.6,73.7,195.7,73.7L195.7,73.7z M195.7,171.3
	c-16.6,0-30.2-13.6-30.2-30.2s13.6-30.2,30.2-30.2c16.6,0,30.2,13.6,30.2,30.2C225.9,157.4,212.4,171.3,195.7,171.3z"/>
</svg>
