<?xml version="1.0" encoding="utf-8"?>
<!-- Generator: Adobe Illustrator 22.0.0, SVG Export Plug-In . SVG Version: 6.00 Build 0)  -->
<svg version="1.1" id="Layer_1" xmlns="http://www.w3.org/2000/svg" xmlns:xlink="http://www.w3.org/1999/xlink" x="0px" y="0px"
	 viewBox="0 0 396.3 477.2" style="enable-background:new 0 0 396.3 477.2;" xml:space="preserve">
<style type="text/css">
	.st0{fill:#5A524D;}
</style>
<path class="st0" d="M299.2,23c-67.6-30.7-124.9-33-185.6,7.4c-46.6,31-63,108.3-62.5,117.8c0.5,9.2,10.8,23.6-19.2,43.5
	s-33.8,15.1-31.2,28.9c1.8,9.7,12.3,15.1,16.4,20.2c4.1,5.1,7.7,11.3,2,17.9c-3.6,4.1-11.8,5.4-6.7,16.6c4.4,10,18.7,11,23.6,12
	c1.8,0.5-13.1-2-19.2,0.5c-4.6,2-9.7,9.7-6.7,14.8s10.8,7.2,13.1,8.7c2,1.5,1.5,10.2,1.8,12.5c0.8,10.2-5.9,19.2-9.7,28.4
	c-4.4,10,2.3,31,24.6,35.6c22,4.6,31,4.4,47.1,5.9c28.9,2.6,51.2,45.6,53.5,81.2c12.5,2,49.2,2,62.2,2c42.2,0,82.4-10.5,118-29.2
	c-18.2-102.9,38.1-112.6,67.6-212.2C399.5,195.6,416.9,76.3,299.2,23L299.2,23z M238.7,220.1l-4.4,3.3l-14.1-13.6
	c-3.8,1.8-7.7,3.1-11.8,4.1l-0.5,18.2l-5.4,0.8l-13.6,1.8l-5.4,0.8l-5.6-18.9c-4.1-0.5-8.4-1-12.3-2l-9.2,15.4l-4.9-2l-12.5-5.1
	l-4.9-2l4.6-18.7c-3.6-2.6-6.9-5.1-9.7-8.2l-15.4,8.4l-3.3-4.1l-8.2-10.8L99,183l13.1-13.6c-1.8-3.8-3.3-8.2-4.6-12.3L90,156.9
	l-0.8-5.4L87.4,138l-0.8-5.4l17.9-5.4c0.5-4.4,1.3-8.7,2.3-12.8l-14.8-9l2-4.9L99.2,88l2-4.9l18.7,4.6c2.6-3.3,5.4-6.7,8.4-9.7
	l-8.7-15.6l4.4-3.3l10.8-8.2l4.4-3.3l14.1,13.6c3.8-1.8,7.7-3.1,11.8-4.1l0.3-18.2l5.4-0.8l13.6-1.8l5.4-0.8l5.6,18.7
	c4.1,0.5,8.2,1.3,12.3,2l9.2-15.4l4.9,2l12.5,5.1l4.9,2l-4.6,18.7c3.6,2.6,6.7,5.1,9.7,8.2l15.4-8.4l3.3,4.4l8.2,10.8l3.3,4.4
	l-13.1,13.6c1.8,3.8,3.3,8.2,4.4,12.3l17.4,0.3l0.8,5.4l1.8,13.6l0.8,5.4l-18.2,5.4c-0.5,4.4-1.3,8.7-2.3,12.8l14.8,9l-2,4.9
	l-5.1,12.5l-2,4.9l-18.7-4.6c-2.6,3.3-5.4,6.7-8.4,9.7l8.7,15.6l-4.4,3.3L238.7,220.1L238.7,220.1z M347.3,244.2l-11.8,1.5
	c-0.8,4.9-2.3,9.2-4.9,13.3c0.3,0.3,0.5,0.3,0.5,0.5l7.4,9.5c1.3,1.5,1,3.8-0.5,5.1l-12.5,9.7c-1.5,1.3-4.1,1-5.1-0.8l-7.2-9.2
	c-2.6,1-5.4,1.8-8.2,2.3c-1.8,0.3-3.8,0.3-5.6,0.3v0.5l-4.6,11c-0.8,1.8-2.8,2.8-4.9,2l-14.6-5.9c-1.8-0.8-2.8-2.8-2-4.9l4.4-10.8
	c-3.6-2.8-6.7-6.7-9-10.8c-0.3,0-0.3,0.3-0.5,0.3l-12,1.5c-2,0.3-3.8-1-4.1-3.1l-2-15.6c-0.3-2,1.3-3.8,3.1-4.1l11.8-1.5
	c0.8-4.9,2.3-9.2,4.9-13.1c-0.3,0-0.3-0.3-0.5-0.5l-7.4-9.5c-1.3-1.5-1-4.1,0.8-5.1l12.5-9.7c1.5-1.3,4.1-1,5.1,0.8l7.2,9.2
	c2.6-1,5.4-1.8,8.2-2.3c1.8-0.3,3.8-0.3,5.6-0.3V204l4.6-11c0.8-1.8,2.8-2.8,4.9-2l14.6,5.9c1.8,0.8,2.8,2.8,2,4.9l-4.4,10.8
	c3.6,2.8,6.7,6.7,9,10.8c0.3,0,0.3-0.3,0.5-0.3l12-1.5c2-0.3,3.8,1.3,4.1,3.1l2,15.6C350.6,241.9,349.3,243.9,347.3,244.2
	L347.3,244.2z M282.8,240.1c0,9.5,7.7,17.1,17.2,17.1c9.5,0,17.1-7.7,17.1-17.1c0-9.5-7.7-17.2-17.2-17.2S282.8,230.6,282.8,240.1
	L282.8,240.1z M187,68.1c-37.1,0-67.1,30-67.1,67.1s30,67.1,67.1,67.1s67.1-30,67.1-67.1S223.9,68.1,187,68.1L187,68.1z M187,165.6
	c-16.6,0-30.2-13.6-30.2-30.2s13.6-30.2,30.2-30.2c16.6,0,30.2,13.6,30.2,30.2C217.2,151.8,203.7,165.6,187,165.6z"/>
</svg>
